<svg xmlns="http://www.w3.org/2000/svg" width="24" height="24" viewBox="0 0 24 24" fill="none">
    <defs>
        <filter id="ouro_neon_papiro" x="-50%" y="-50%" width="200%" height="200%">
            <feDropShadow dx="0" dy="0" stdDeviation="1.2" flood-color="#C2920A" flood-opacity="0.8"/>
            <feDropShadow dx="0" dy="0" stdDeviation="0.6" flood-color="#FCD34D" flood-opacity="1"/>
        </filter>
    </defs>

    <g transform="scale(0.5)"
       filter="url(#ouro_neon_papiro)"
       stroke="#FBBF24"
       stroke-width="2.5"
       stroke-linecap="round"
       stroke-linejoin="round">

        <path d="M45.5,24A21.5,21.5,0,1,1,24,2.5,21.51,21.51,0,0,1,45.5,24Z"/>

        <path d="M10.5,18.18c1.59-3.2,4.85-6.7,5.6-6.7s-1.64,9.15-2.8,21c0,0,5.91-17.82,9.53-17.82,1.44,0-1.45,13.88-1.45,13.88s5.9-14.08,9.49-14.08c2.39,0-2.17,13.56-2.09,16.69a11.7,11.7,0,0,0,1.5,5.41"/>

        <path d="M31.56,33.35a24.49,24.49,0,0,1,5.94,1"/>
        <path d="M12.88,36a79.07,79.07,0,0,1,13.56-2.52"/>
    </g>
</svg>
