<svg xmlns="http://www.w3.org/2000/svg" viewBox="0 0 1400 800" width="1400" height="800" role="img"
     aria-labelledby="tit desc" font-family="'Segoe UI', 'Helvetica Neue', Arial, sans-serif">
    <title id="tit">A estrutura do livro do Apocalipse — 16 visões e o rolo que se dobra sobre si mesmo</title>
    <desc id="desc">Depois da introdução (Apocalipse 1:1-9), o livro pode ser encarado como 16 visões. Elas não
        formam uma fila: o Cordeiro recebe um rolo de sete selos e, ao ser aberto o sétimo selo, não vem um
        evento — vêm sete trombetas, e as seis primeiras são a 5ª visão. A sétima trombeta, por sua vez,
        anuncia o terceiro ai: a entrada do Reino de Jeová e do seu Cristo, na 6ª visão. O rolo aberto mostra
        esse encaixe: de um lado os sete selos e, ao abrir o sétimo, o rolo não termina — ele vira
        e segue nas sete trombetas, chegando ao miolo, o Reino. As sete tigelas são outra série de sete, na 10ª
        visão, e não saem de dentro dos selos.</desc>

    <defs>
        <linearGradient id="fundo" x1="0" y1="0" x2="0" y2="1">
            <stop offset="0" stop-color="#f2eefb"/>
            <stop offset="1" stop-color="#e0d9f3"/>
        </linearGradient>
        <marker id="st" viewBox="0 0 10 10" refX="8" refY="5" markerWidth="7" markerHeight="7" orient="auto">
            <path d="M0 0 L10 5 L0 10 z" fill="#6b46c1"/>
        </marker>
        <radialGradient id="luzRolo" cx="0.42" cy="0.38" r="0.7">
            <stop offset="0" stop-color="#fff8e8"/>
            <stop offset="1" stop-color="#fff8e8" stop-opacity="0"/>
        </radialGradient>
        <linearGradient id="pergaminho" x1="235" y1="55" x2="235" y2="315" gradientUnits="userSpaceOnUse">
            <stop offset="0" stop-color="#f8efd6"/>
            <stop offset="0.55" stop-color="#eeddb4"/>
            <stop offset="1" stop-color="#e3cd9c"/>
        </linearGradient>
        <radialGradient id="reinoRolo" cx="0.4" cy="0.35" r="0.75">
            <stop offset="0" stop-color="#ffe08a"/>
            <stop offset="1" stop-color="#f0b429"/>
        </radialGradient>
    </defs>

    <style>
        .cab  { fill:#2e2352; font-size:28px; font-weight:800; letter-spacing:1.1px; }
        .rot  { fill:#6b46c1; font-size:18px; font-weight:700; }
        .rotp { fill:#635a83; font-size:13px; }
        .painel { fill:#ffffff; stroke:#cdc3ea; stroke-width:2; }
        .selo   { fill:none; stroke:#3aa0ff; stroke-width:24; stroke-linecap:round; }
        .tromb  { fill:none; stroke:#a679e8; stroke-width:24; stroke-linecap:round; }
        .num    { fill:#ffffff; font-size:12px; font-weight:800; text-anchor:middle; dominant-baseline:central; }
        .lin    { fill:#463b6b; font-size:12.5px; }
        .linn   { fill:#6b46c1; font-size:12.5px; font-weight:800; }
        .ouro   { fill:#b07d10; }
        .ok     { fill:#2f8f5c; }
    </style>

    <rect width="1400" height="800" fill="url(#fundo)"/>

    <text class="cab" x="46" y="54">A ESTRUTURA DO APOCALIPSE — O ROLO QUE SE DOBRA</text>
    <text class="rotp" x="46" y="84" font-size="16">
        O livro não é uma fila de símbolos. Depois da introdução (1:1-9), são 16 visões — e algumas não vêm DEPOIS das outras: vêm DENTRO delas.
    </text>
    <g transform="translate(46,112)">
        <rect class="painel" width="390" height="380" rx="16"/>
        <text class="rot" x="22" y="36">AS 16 VISÕES</text>
        <!-- descrições recuadas p/ x=120 (fonte 11) p/ não vazar do painel -->

        <text class="rotp" x="22" y="56">as que se DESDOBRAM estão em roxo</text>
        <text class="lin" x="24" y="78" font-weight="800">1ª</text>
        <text class="lin" x="48" y="78">1:10–3:22</text>
        <text class="lin" x="120" y="78" font-size="11" fill="#7d749b">mensagens às sete congregações</text>
        <text class="lin" x="24" y="97" font-weight="800">2ª</text>
        <text class="lin" x="48" y="97">4:1–5:14</text>
        <text class="lin" x="120" y="97" font-size="11" fill="#7d749b">o trono; o rolo é entregue ao Cordeiro</text>
        <text class="lin" x="24" y="116" font-weight="800">3ª</text>
        <text class="lin" x="48" y="116">6:1-17</text>
        <text class="lin" x="120" y="116" font-size="11" fill="#7d749b">os seis primeiros selos; os quatro cavaleiros</text>
        <text class="lin" x="24" y="135" font-weight="800">4ª</text>
        <text class="lin" x="48" y="135">7:1-17</text>
        <text class="lin" x="120" y="135" font-size="11" fill="#7d749b">os 144.000 selados; a grande multidão</text>
        <rect x="18" y="142" width="354" height="19" rx="4" fill="#f3ecff"/>
        <text class="linn" x="24" y="154" font-weight="800">5ª</text>
        <text class="linn" x="48" y="154">8:1–9:21</text>
        <text class="lin" x="120" y="154" font-size="11" fill="#7d749b">o 7º selo abre: seis toques de trombeta</text>
        <rect x="18" y="161" width="354" height="19" rx="4" fill="#f3ecff"/>
        <text class="linn" x="24" y="173" font-weight="800">6ª</text>
        <text class="linn" x="48" y="173">10:1–11:19</text>
        <text class="lin" x="120" y="173" font-size="11" fill="#7d749b">o pequeno rolo; a 7ª trombeta: o Reino</text>
        <text class="lin" x="24" y="192" font-weight="800">7ª</text>
        <text class="lin" x="48" y="192">12:1-17</text>
        <text class="lin" x="120" y="192" font-size="11" fill="#7d749b">o nascimento do Reino; Satanás lançado</text>
        <text class="lin" x="24" y="211" font-weight="800">8ª</text>
        <text class="lin" x="48" y="211">13:1-18</text>
        <text class="lin" x="120" y="211" font-size="11" fill="#7d749b">a fera do mar; a fera de dois chifres</text>
        <text class="lin" x="24" y="230" font-weight="800">9ª</text>
        <text class="lin" x="48" y="230">14:1-20</text>
        <text class="lin" x="120" y="230" font-size="11" fill="#7d749b">os 144.000 no Monte Sião; a ceifa</text>
        <text class="lin" x="24" y="249" font-weight="800">10ª</text>
        <text class="lin" x="48" y="249">15:1–16:21</text>
        <text class="lin" x="120" y="249" font-size="11" fill="#7d749b">as sete tigelas da ira</text>
        <text class="lin" x="24" y="268" font-weight="800">11ª</text>
        <text class="lin" x="48" y="268">17:1-18</text>
        <text class="lin" x="120" y="268" font-size="11" fill="#7d749b">Babilônia, a Grande, e a fera escarlate</text>
        <text class="lin" x="24" y="287" font-weight="800">12ª</text>
        <text class="lin" x="48" y="287">18:1–19:10</text>
        <text class="lin" x="120" y="287" font-size="11" fill="#7d749b">a queda de Babilônia; casamento do Cordeiro</text>
        <text class="lin" x="24" y="306" font-weight="800">13ª</text>
        <text class="lin" x="48" y="306">19:11-21</text>
        <text class="lin" x="120" y="306" font-size="11" fill="#7d749b">Jesus lidera os exércitos celestiais</text>
        <text class="lin" x="24" y="325" font-weight="800">14ª</text>
        <text class="lin" x="48" y="325">20:1-10</text>
        <text class="lin" x="120" y="325" font-size="11" fill="#7d749b">Satanás no abismo; o Reinado Milenar</text>
        <text class="lin" x="24" y="344" font-weight="800">15ª</text>
        <text class="lin" x="48" y="344">20:11–21:8</text>
        <text class="lin" x="120" y="344" font-size="11" fill="#7d749b">a ressurreição; novo céu e nova terra</text>
        <text class="lin" x="24" y="363" font-weight="800">16ª</text>
        <text class="lin" x="48" y="363">21:9–22:5</text>
        <text class="lin" x="120" y="363" font-size="11" fill="#7d749b">a Nova Jerusalém; “Vem!”</text>
    </g>

    <g transform="translate(460,112)">
        <rect class="painel" width="470" height="380" rx="16"/>
        <text class="rot" x="22" y="36">O ROLO ABERTO</text>
        <text class="rotp" x="22" y="56">os sete selos de um lado; ao abrir o 7º, o rolo VIRA nas sete trombetas</text>

        <!-- luz quente sobre o pergaminho -->
        <ellipse cx="230" cy="205" rx="210" ry="120" fill="url(#luzRolo)"/>

        <!-- roletes (as duas varetas do rolo aberto) -->
        <g><rect x="23" y="100" width="14" height="204" rx="7" fill="#6b4a2a"/><rect x="28" y="106" width="3.2" height="192" rx="1.6" fill="#9c7040" opacity=".65"/><ellipse cx="30" cy="100" rx="11" ry="6" fill="#7d5730"/><ellipse cx="30" cy="304" rx="11" ry="6" fill="#7d5730"/></g>
        <g><rect x="433" y="100" width="14" height="204" rx="7" fill="#6b4a2a"/><rect x="438" y="106" width="3.2" height="192" rx="1.6" fill="#9c7040" opacity=".65"/><ellipse cx="440" cy="100" rx="11" ry="6" fill="#7d5730"/><ellipse cx="440" cy="304" rx="11" ry="6" fill="#7d5730"/></g>

        <!-- SOMBRA das duas tiras + da virada -->
        <rect x="40" y="116" width="378" height="54" rx="12" fill="#b48a4e" opacity=".4"/>
        <rect x="40" y="234" width="378" height="54" rx="12" fill="#b48a4e" opacity=".4"/>
        <path d="M400 143 Q 442 150 442 202 Q 442 254 400 261" fill="none" stroke="#b48a4e" stroke-width="34" stroke-linecap="round" opacity=".4"/>

        <!-- PERGAMINHO: tira de cima (selos), a virada e a tira de baixo (trombetas) -->
        <path d="M400 143 Q 438 150 438 202 Q 438 254 400 261" fill="none" stroke="url(#pergaminho)" stroke-width="29" stroke-linecap="round"/>
        <rect x="44" y="120" width="372" height="46" rx="9" fill="url(#pergaminho)"/>
        <rect x="44" y="238" width="372" height="46" rx="9" fill="url(#pergaminho)"/>
        <!-- brilho no alto de cada tira -->
        <rect x="52" y="125" width="352" height="5" rx="2.5" fill="#fffaec" opacity=".6"/>
        <rect x="52" y="243" width="352" height="5" rx="2.5" fill="#fffaec" opacity=".6"/>

        <!-- TINTA de identidade: azul nos selos, roxo nas trombetas -->
        <path d="M100 143 L400 143" stroke="#2f6fb0" stroke-width="5" stroke-linecap="round" opacity=".85"/>
        <path d="M400 261 L100 261" stroke="#8659c4" stroke-width="5" stroke-linecap="round" opacity=".85"/>
        <!-- a VIRADA: a tinta troca de cor (ouro) exatamente onde o 7º selo abre -->
        <path d="M400 143 Q 424 150 424 202 Q 424 254 400 261" fill="none" stroke="#e0a83c" stroke-width="4.5" stroke-linecap="round"/>
        <text x="446" y="206" font-size="11" font-weight="800" fill="#b07d10" text-anchor="middle" transform="rotate(90 446 206)">a virada</text>

        <!-- os SETE SELOS (azul), a volta de cima -->
        <g><circle cx="100" cy="144.4" r="16.2" fill="#7c5a1e" opacity=".22"/><circle cx="100" cy="143" r="15" fill="#2f6fb0" stroke="#184e86" stroke-width="1.6"/><ellipse cx="95.2" cy="137.9" rx="6.0" ry="4.2" fill="#fff" opacity=".33"/><text x="100" y="143.5" text-anchor="middle" dominant-baseline="central" font-size="14.2" font-weight="800" fill="#fff">1</text></g>
        <g><circle cx="150" cy="144.4" r="16.2" fill="#7c5a1e" opacity=".22"/><circle cx="150" cy="143" r="15" fill="#2f6fb0" stroke="#184e86" stroke-width="1.6"/><ellipse cx="145.2" cy="137.9" rx="6.0" ry="4.2" fill="#fff" opacity=".33"/><text x="150" y="143.5" text-anchor="middle" dominant-baseline="central" font-size="14.2" font-weight="800" fill="#fff">2</text></g>
        <g><circle cx="200" cy="144.4" r="16.2" fill="#7c5a1e" opacity=".22"/><circle cx="200" cy="143" r="15" fill="#2f6fb0" stroke="#184e86" stroke-width="1.6"/><ellipse cx="195.2" cy="137.9" rx="6.0" ry="4.2" fill="#fff" opacity=".33"/><text x="200" y="143.5" text-anchor="middle" dominant-baseline="central" font-size="14.2" font-weight="800" fill="#fff">3</text></g>
        <g><circle cx="250" cy="144.4" r="16.2" fill="#7c5a1e" opacity=".22"/><circle cx="250" cy="143" r="15" fill="#2f6fb0" stroke="#184e86" stroke-width="1.6"/><ellipse cx="245.2" cy="137.9" rx="6.0" ry="4.2" fill="#fff" opacity=".33"/><text x="250" y="143.5" text-anchor="middle" dominant-baseline="central" font-size="14.2" font-weight="800" fill="#fff">4</text></g>
        <g><circle cx="300" cy="144.4" r="16.2" fill="#7c5a1e" opacity=".22"/><circle cx="300" cy="143" r="15" fill="#2f6fb0" stroke="#184e86" stroke-width="1.6"/><ellipse cx="295.2" cy="137.9" rx="6.0" ry="4.2" fill="#fff" opacity=".33"/><text x="300" y="143.5" text-anchor="middle" dominant-baseline="central" font-size="14.2" font-weight="800" fill="#fff">5</text></g>
        <g><circle cx="350" cy="144.4" r="16.2" fill="#7c5a1e" opacity=".22"/><circle cx="350" cy="143" r="15" fill="#2f6fb0" stroke="#184e86" stroke-width="1.6"/><ellipse cx="345.2" cy="137.9" rx="6.0" ry="4.2" fill="#fff" opacity=".33"/><text x="350" y="143.5" text-anchor="middle" dominant-baseline="central" font-size="14.2" font-weight="800" fill="#fff">6</text></g>
        <g><circle cx="400" cy="144.4" r="16.2" fill="#7c5a1e" opacity=".22"/><circle cx="400" cy="143" r="15" fill="#2f6fb0" stroke="#184e86" stroke-width="1.6"/><ellipse cx="395.2" cy="137.9" rx="6.0" ry="4.2" fill="#fff" opacity=".33"/><text x="400" y="143.5" text-anchor="middle" dominant-baseline="central" font-size="14.2" font-weight="800" fill="#fff">7</text></g>
        <!-- a 4ª visão, encaixada entre o 6º e o 7º selo -->
        <circle cx="375" cy="113" r="6.5" fill="#ffc857" stroke="#b07d10" stroke-width="1.5"/>
        <line x1="375" y1="119" x2="375" y2="128" stroke="#b07d10" stroke-width="1.4" stroke-dasharray="2 2"/>
        <text x="375" y="103" font-size="11" font-weight="800" text-anchor="middle" fill="#b07d10">4ª</text>

        <!-- as SETE TROMBETAS (roxo), a volta de baixo -->
        <g><circle cx="400" cy="262.4" r="14.2" fill="#7c5a1e" opacity=".22"/><circle cx="400" cy="261" r="13" fill="#8659c4" stroke="#5a3597" stroke-width="1.6"/><ellipse cx="395.8" cy="256.6" rx="5.2" ry="3.6" fill="#fff" opacity=".33"/><text x="400" y="261.5" text-anchor="middle" dominant-baseline="central" font-size="12.3" font-weight="800" fill="#fff">1</text></g>
        <g><circle cx="350" cy="262.4" r="14.2" fill="#7c5a1e" opacity=".22"/><circle cx="350" cy="261" r="13" fill="#8659c4" stroke="#5a3597" stroke-width="1.6"/><ellipse cx="345.8" cy="256.6" rx="5.2" ry="3.6" fill="#fff" opacity=".33"/><text x="350" y="261.5" text-anchor="middle" dominant-baseline="central" font-size="12.3" font-weight="800" fill="#fff">2</text></g>
        <g><circle cx="300" cy="262.4" r="14.2" fill="#7c5a1e" opacity=".22"/><circle cx="300" cy="261" r="13" fill="#8659c4" stroke="#5a3597" stroke-width="1.6"/><ellipse cx="295.8" cy="256.6" rx="5.2" ry="3.6" fill="#fff" opacity=".33"/><text x="300" y="261.5" text-anchor="middle" dominant-baseline="central" font-size="12.3" font-weight="800" fill="#fff">3</text></g>
        <g><circle cx="250" cy="262.4" r="14.2" fill="#7c5a1e" opacity=".22"/><circle cx="250" cy="261" r="13" fill="#8659c4" stroke="#5a3597" stroke-width="1.6"/><ellipse cx="245.8" cy="256.6" rx="5.2" ry="3.6" fill="#fff" opacity=".33"/><text x="250" y="261.5" text-anchor="middle" dominant-baseline="central" font-size="12.3" font-weight="800" fill="#fff">4</text></g>
        <g><circle cx="200" cy="262.4" r="14.2" fill="#7c5a1e" opacity=".22"/><circle cx="200" cy="261" r="13" fill="#8659c4" stroke="#5a3597" stroke-width="1.6"/><ellipse cx="195.8" cy="256.6" rx="5.2" ry="3.6" fill="#fff" opacity=".33"/><text x="200" y="261.5" text-anchor="middle" dominant-baseline="central" font-size="12.3" font-weight="800" fill="#fff">5</text></g>
        <g><circle cx="150" cy="262.4" r="14.2" fill="#7c5a1e" opacity=".22"/><circle cx="150" cy="261" r="13" fill="#8659c4" stroke="#5a3597" stroke-width="1.6"/><ellipse cx="145.8" cy="256.6" rx="5.2" ry="3.6" fill="#fff" opacity=".33"/><text x="150" y="261.5" text-anchor="middle" dominant-baseline="central" font-size="12.3" font-weight="800" fill="#fff">6</text></g>
        <g><circle cx="100" cy="262.4" r="14.2" fill="#7c5a1e" opacity=".22"/><circle cx="100" cy="261" r="13" fill="#8659c4" stroke="#5a3597" stroke-width="1.6"/><ellipse cx="95.8" cy="256.6" rx="5.2" ry="3.6" fill="#fff" opacity=".33"/><text x="100" y="261.5" text-anchor="middle" dominant-baseline="central" font-size="12.3" font-weight="800" fill="#fff">7</text></g>

        <!-- O MIOLO: o Reino, ao fim das trombetas -->
        <circle cx="58" cy="261" r="21" fill="url(#reinoRolo)" stroke="#b07d10" stroke-width="2.5"/>
        <text x="58" y="256" font-size="10.5" font-weight="800" text-anchor="middle" fill="#5c4a10">O REINO</text>
        <text x="58" y="269" font-size="8.5" text-anchor="middle" fill="#7a6320">11:15</text>

        <text class="rotp" x="22" y="330" font-size="12"><tspan fill="#1c6ea8" font-weight="800">● os 7 selos</tspan>   <tspan fill="#7248b0" font-weight="800">● as 7 trombetas</tspan>   <tspan fill="#b07d10" font-weight="800">● o Reino</tspan></text>
        <text class="rotp" x="22" y="348" font-size="11.5">Ao abrir o 7º selo o rolo não acaba: ele VIRA e segue nas trombetas.</text>
    </g>

    <g transform="translate(954,112)">
        <rect class="painel" width="400" height="380" rx="16"/>
        <text class="rot" x="22" y="36">O ENCAIXE</text>
        <text class="rotp" x="22" y="56">onde quase todo mundo se perde</text>
        <g transform="translate(22,76)">
            <rect width="356" height="38" rx="8" fill="#e9effb" stroke="#a9b8e8"/>
            <text x="12" y="17" font-size="12.5" font-weight="800" fill="#232a55">O ROLO — 7 selos</text>
            <text x="12" y="31" font-size="11" fill="#7d749b">2ª visão · Jeová o entrega ao Cordeiro</text>
        </g>
        <path d="M34 114 L34 124" stroke="#6b46c1" stroke-width="1.6" marker-end="url(#st)"/>
        <g transform="translate(30,126)">
            <rect width="348" height="38" rx="8" fill="#e9f4ff" stroke="#8fc4ec"/>
            <text x="12" y="17" font-size="12.5" font-weight="800" fill="#1c6ea8">selos 1 a 6</text>
            <text x="12" y="31" font-size="11" fill="#7d749b">3ª visão · os quatro cavaleiros</text>
        </g>
        <path d="M42 164 L42 174" stroke="#6b46c1" stroke-width="1.6" marker-end="url(#st)"/>
        <g transform="translate(38,176)">
            <rect width="340" height="38" rx="8" fill="#f3ecff" stroke="#c4a6f0"/>
            <text x="12" y="17" font-size="12.5" font-weight="800" fill="#6b46c1">7º SELO → não é um evento</text>
            <text x="12" y="31" font-size="11" fill="#7d749b">abre-se em SETE TROMBETAS (8:1)</text>
        </g>
        <path d="M50 214 L50 224" stroke="#6b46c1" stroke-width="1.6" marker-end="url(#st)"/>
        <g transform="translate(46,226)">
            <rect width="332" height="38" rx="8" fill="#f3ecff" stroke="#c4a6f0"/>
            <text x="12" y="17" font-size="12.5" font-weight="800" fill="#6b46c1">trombetas 1 a 6</text>
            <text x="12" y="31" font-size="11" fill="#7d749b">5ª visão · a 5ª e a 6ª = 1º e 2º ai</text>
        </g>
        <path d="M58 264 L58 274" stroke="#6b46c1" stroke-width="1.6" marker-end="url(#st)"/>
        <g transform="translate(54,276)">
            <rect width="324" height="38" rx="8" fill="#fdf4e0" stroke="#e8c47a"/>
            <text x="12" y="17" font-size="12.5" font-weight="800" fill="#b07d10">7ª TROMBETA → nem esta é um evento</text>
            <text x="12" y="31" font-size="11" fill="#7d749b">6ª visão · anuncia o 3º ai</text>
        </g>
        <path d="M66 314 L66 324" stroke="#6b46c1" stroke-width="1.6" marker-end="url(#st)"/>
        <g transform="translate(62,326)">
            <rect width="316" height="38" rx="8" fill="#fff6dd" stroke="#ffc857"/>
            <text x="12" y="17" font-size="12.5" font-weight="800" fill="#8a5f00">O REINO de Jeová e do seu Cristo</text>
            <text x="12" y="31" font-size="11" fill="#7d749b">11:15 · o miolo do rolo</text>
        </g>
        <rect x="22" y="378" width="0" height="0"/>
    </g>

    <g transform="translate(46,532)">
        <g>
            <rect class="painel" width="420" height="224" rx="16"/>
            <text class="rot" x="24" y="42">POR QUE ISSO CONFUNDE</text>
            <text class="rotp" x="24" y="76" font-size="14">Quem lê em fila espera que o sétimo selo traga um</text>
            <text class="rotp" x="24" y="98" font-size="14">acontecimento — e acha que não aconteceu nada.</text>
            <text class="rotp" x="24" y="128" font-size="14">Mas o sétimo selo é a própria porta: dele saem as</text>
            <text class="rotp" x="24" y="150" font-size="14">sete trombetas. O livro não corta; ele encaixa.</text>
            <text class="rotp" x="24" y="184" font-size="14" font-style="italic">Duas visões se desdobram: a 5ª e a 6ª.</text>
        </g>
        <g transform="translate(444,0)">
            <rect class="painel" width="420" height="224" rx="16" fill="#f6f1ff" stroke="#c4a6f0"/>
            <text class="rot" x="24" y="42">NEM TODO “SETE” ENCAIXA</text>
            <text class="rotp" x="24" y="76" font-size="14">As sete tigelas da ira também são sete — mas são</text>
            <text class="rotp" x="24" y="98" font-size="14">a 10ª visão, e NÃO saem de dentro dos selos.</text>
            <text class="rotp" x="24" y="128" font-size="14">Por isso elas ficam fora do rolo: reconhecer o</text>
            <text class="rotp" x="24" y="150" font-size="14">que encaixa é tão importante quanto o que não.</text>
            <text class="rotp" x="24" y="184" font-size="14" font-style="italic">— Apocalipse 15:1–16:21</text>
        </g>
        <g transform="translate(888,0)">
            <rect class="painel" width="420" height="224" rx="16" fill="#eef8f2" stroke="#a9dcc0"/>
            <text class="rot ok" x="24" y="42">O QUE A PLANTA REVELA</text>
            <text class="rotp" x="24" y="76" font-size="14">O livro dedica 62 versículos a conselho prático às</text>
            <text class="rotp" x="24" y="98" font-size="14">sete congregações — e 17 aos quatro cavaleiros.</text>
            <text class="rotp" x="24" y="128" font-size="14">Tudo converge para um miolo: o Reino (11:15) e a</text>
            <text class="rotp" x="24" y="150" font-size="14">Nova Jerusalém, que fecha com um convite: “Vem!”</text>
            <text class="ok" x="24" y="192" font-size="17" font-weight="800">Arquitetura assim não se rabisca: projeta-se.</text>
        </g>
    </g>
</svg>
